<?xml version="1.0" encoding="UTF-8"?>
<svg xmlns="http://www.w3.org/2000/svg" viewBox="0 0 1148.38 1168.5">
    <defs>
        <style>.cls-1{fill:none;stroke:#000;stroke-miterlimit:10;stroke-width:3px;}</style>
    </defs>
    <g id="Logo">
        <g id="Circle">
            <path id="Bottom_Circle_Section" class="cls-1" d="m858.36,652.6c-8.75,9.62-16.61,18.26-25.01,27.49,10.41,9.06,20.53,17.87,30.67,26.7-154.63,153.09-382.29,148.84-522.62,49,9.28-10.28,18.33-20.73,28.02-30.54,1.38-1.4,6.57-.79,8.83.69,26.61,17.42,55.18,30.57,85.66,39.37,103.01,29.74,201.44,18.97,294.51-34.8,23.53-13.59,45.48-29.65,65.06-50.33-8.1-7.38-16.18-14.58-24.02-22.03-1.46-1.39-1.99-3.77-2.95-5.69.84-.49,1.67-.98,2.51-1.47,9.48,8.05,18.95,16.1,27.66,23.5,8-6.92,15.73-13.61,24.06-20.83-9.84-9.13-18.42-17.1-27-25.06.77-.91,1.54-1.82,2.3-2.73,11.14,7.95,21.16,17.37,32.31,26.73Zm-507.13,103.52c88.8,55.97,184.19,76.23,286.63,59.82,83.21-13.33,155.63-49.65,217.47-108.66-9.13-8-17.47-15.32-24.91-21.84-142.9,119.38-294.98,133.5-458.6,46.06-5.92,7.08-12.86,15.38-20.59,24.62Z"/>
            <path id="Top_Circle_Section" class="cls-1" d="m349.03,177.4c-9.45-8.03-18.9-16.07-27.62-23.48-8.15,6.83-15.99,13.4-24.5,20.52,10.21,9.4,18.84,17.36,28.14,25.92-6,.85-22.71-11.63-34.98-24.96,7.93-8.73,15.92-17.53,24.66-27.16-10.3-8.88-20.46-17.63-30.62-26.39C422.62-18.63,647.91-37.46,806.82,72.37c-9.63,10.65-19.08,21.35-28.96,31.64-1.01,1.05-5.15.38-6.96-.82-35.25-23.22-73.76-38.5-114.85-47.52-45.5-9.99-91.36-11.48-137.35-4.3-44.75,6.98-86.96,21.65-126.02,44.71-24.14,14.25-47.07,30.23-67.5,51.49,1.11,1.43,2.21,3.34,3.76,4.77,6.66,6.14,13.55,12.04,20.11,18.29,1.3,1.24,1.52,3.61,2.25,5.45-.75.44-1.5.88-2.25,1.32Zm-56.02-55.9c8.75,7.56,17.43,15.06,24.74,21.38C461.2,23.5,613.11,9.62,776.25,96.91c6.18-7.42,13.09-15.72,20.05-24.08C648.01-27.32,430.64-13.97,293.02,121.5Z"/>
            <path id="Right_Circle_Section" class="cls-1" d="m842.28,166.33c-9.86,8.74-19.1,16.95-28.45,25.04-.24.21-1.67-.97-3.39-2,8.41-9.98,16.54-19.63,25.4-30.15-6.61-6.31-13.01-12.25-19.21-18.4-3.27-3.24-5.44-1.82-7.89.99-5.07,5.83-10.25,11.58-15.52,17.24-1.6,1.72-3.61,3.05-5.43,4.55-.74-.72-1.48-1.44-2.22-2.15,8.6-10.36,17.2-20.72,26.67-32.13,9.27,8.51,17.99,16.52,27.47,25.22,9.08-10.37,17.92-20.45,27.19-31.04,69.61,72.13,109.36,157.6,118.17,256.34,8.63,96.7-15.85,185.76-68.9,267.82-11.05-10.06-21.47-19.16-31.26-28.89-1.35-1.34-.58-6.47.9-8.74,14.27-21.91,25.32-45.36,34.05-69.93,10.1-28.4,16.4-57.59,19.3-87.64,7.29-75.44-6.78-146.49-43.18-212.96-15.02-27.42-32.86-52.87-53.72-73.16Zm72.92,470.61c106.57-159.59,78.7-377.65-48.55-504.02-7.52,8.55-15.02,17.07-22.78,25.89,59.21,62.15,92.78,135.87,101.16,220.15,8.42,84.57-10.34,163.64-55.41,236.46,8.39,7.06,16.71,14.07,25.57,21.52Z"/>
            <path id="Left_Circle_Section" class="cls-1" d="m305.39,661.95c10.01-8.69,19.35-16.82,28.8-24.83.24-.21,1.65.96,3.39,2.02-8.43,9.98-16.57,19.62-25.07,29.68,6.39,6.36,12.6,12.49,18.75,18.69,3,3.02,5.29,2.38,7.91-.7,5.18-6.09,10.56-12.01,16.05-17.82,1.52-1.61,3.69-2.62,5.56-3.9.6.68,1.21,1.35,1.81,2.03-8.74,10.37-17.48,20.75-26.93,31.96-9.35-8.54-18.11-16.55-27.46-25.09-8.98,10.27-17.83,20.39-26.69,30.53-142.73-141.83-156.64-367.75-49.22-523.03,10.49,9.43,21.12,18.64,31.18,28.43,1.25,1.21.24,5.85-.96,8.29-11.13,22.79-23.97,44.85-33.48,68.28-11.79,29.06-17.45,59.91-20.39,91.27-6.72,71.75,6.23,139.68,39.18,203.62,15.65,30.38,35.07,58.3,57.57,80.55Zm-46.75-448.69c-8.94-7.48-17.26-14.44-25.6-21.41-40.85,57.51-81.23,163.97-60.79,287.17,13.76,82.96,49.76,155.43,108.52,216.98,4.68-5.15,8.91-9.54,12.84-14.18q10.1-11.89-.49-23.81c-.53-.6-1.01-1.24-1.53-1.85-36.97-43.37-63.1-92.33-77.83-147.55-13.87-51.98-16.36-104.42-7.6-157.28,8.15-49.22,24.8-95.47,52.46-138.07Z"/>
        </g>
        <path id="Stylized_Letter_M" class="cls-1" d="m368.39,232.37c25.45-.07,47.42,9.71,67.25,24.76,33.99,25.81,55.5,60.91,69.85,100.07,16.42,44.81,30.45,90.5,45.51,135.81,7.66,23.06,15.28,46.12,24.8,69.36,2.32-6.59,4.74-13.15,6.93-19.79,18.18-55.16,36.21-110.36,54.49-165.48,9.73-29.32,21.51-57.81,40.23-82.68,22.85-30.35,51.4-52.87,89.44-61.17,4.81-1.05,9.83-1.15,15.23.04-2.23.99-4.47,1.95-6.69,2.96-25.23,11.51-37.69,32.85-43.24,58.54-3.01,13.94-4.92,28.44-4.83,42.68.27,40.25.91,80.55,3.25,120.72,1.39,23.82,6.71,47.35,18.56,68.67,7.98,14.37,12.69,15.75,28.13,11.08,2.91-.88,6.95,1.96,10.68,3.15-9.24,15.49-28.74,25.09-41.53,19.43-6.87-3.05-13.63-8.64-17.91-14.84-12.76-18.44-17.56-39.91-20.93-61.83-6.27-40.75-5.85-81.81-6.06-122.81-.08-16.73,1.9-33.46,2.92-50.2.07-1.2,0-2.42-1.52-4.23-2.65,4.11-5.53,8.08-7.9,12.34-15.05,27-25.7,55.85-34.86,85.23-25.99,83.36-50.91,167.07-84.22,247.94-.18.43-.75.69-1.91,1.72-7.77-20.09-15.92-39.67-22.94-59.64-9.92-28.22-19.33-56.63-28.35-85.16-12.29-38.85-23.76-77.96-36.07-116.81-9.64-30.43-21.52-59.94-39.88-86.39-.73-1.05-1.5-2.06-2.6-3.55,1.08,16.17,2.85,31.63,3.02,47.12.54,49.05.81,98.15-8.56,146.6-3.39,17.53-8.25,34.75-18.24,49.91-15.35,23.28-46.69,21.26-60.04-4.11,2.53-1.71,5.1-3.45,7.59-5.14,14.81,8.03,21.79,6.38,30.45-7.88,10.41-17.14,14.46-36.48,17.75-55.88,7.83-46.26,7.07-93.01,6.07-139.64-.34-16.01-2.81-32.46-7.39-47.79-8.42-28.24-20.25-40.1-46.49-53.09Z"/>
    </g>
    <g id="Text">
        <g id="Modella_Moda_Text">
            <path d="m215.87,1067.88c-12.32,0-21.95-1.92-28.88-5.78-6.93-3.85-11.77-9.84-14.5-17.97-2.74-8.13-4.11-18.61-4.11-31.44v-98.82l-64.17,142.46h-5.13l-66.74-145.03v145.03h-10.27v-169.41h24.38l61.6,133.48,60.32-133.48h23.1v125.78c0,15.57,1.97,27.81,5.9,36.71,3.93,8.9,10.09,13.35,18.48,13.35v5.13Z"/>
            <path d="m257.64,1058.25c-8.98,0-16.62-2.12-22.91-6.35-6.29-4.24-11.1-9.94-14.44-17.13-3.34-7.19-5.01-15.08-5.01-23.68s1.67-16.65,5.01-23.78c3.34-7.12,8.15-12.8,14.44-17.04,6.29-4.24,13.92-6.35,22.91-6.35s16.62,2.12,22.91,6.35c6.29,4.24,11.1,9.91,14.44,17.04,3.34,7.12,5.01,15.05,5.01,23.78s-1.67,16.49-5.01,23.68c-3.34,7.19-8.15,12.9-14.44,17.13-6.29,4.24-13.93,6.35-22.91,6.35Zm0-7.7c4.88,0,9.11-1.76,12.71-5.29,3.59-3.53,6.38-8.28,8.37-14.25,1.99-5.97,2.98-12.61,2.98-19.92s-1-14.12-2.98-20.02c-1.99-5.9-4.78-10.62-8.37-14.15-3.59-3.53-7.83-5.29-12.71-5.29s-8.95,1.77-12.61,5.29c-3.66,3.53-6.48,8.25-8.47,14.15-1.99,5.91-2.98,12.58-2.98,20.02s.99,13.96,2.98,19.92c1.99,5.97,4.81,10.72,8.47,14.25,3.66,3.53,7.86,5.29,12.61,5.29Z"/>
            <path d="m342.73,1058.25c-7.7,0-14.12-2.12-19.25-6.35-5.13-4.24-8.98-9.94-11.55-17.13-2.57-7.19-3.85-15.08-3.85-23.68s1.31-16.65,3.95-23.78c2.63-7.12,6.64-12.8,12.03-17.04,5.39-4.24,12.25-6.35,20.6-6.35,5.39,0,10.01.61,13.86,1.83,3.85,1.22,7.25,2.54,10.2,3.95v-17.33c0-5.78-.8-10.43-2.41-13.96-1.61-3.53-5.29-5.29-11.07-5.29h-3.85v-3.85h17.33c4.49,0,7.99.58,10.49,1.73,2.5,1.16,4.27,3.4,5.29,6.74,1.03,3.34,1.54,8.21,1.54,14.63v103.96h-9.63l-6.74-8.66h-.96c-2.05,2.44-4.94,4.81-8.66,7.12-3.72,2.31-9.5,3.46-17.33,3.46Zm5.78-7.7c3.98,0,7.19-.58,9.63-1.73,2.44-1.16,4.46-2.6,6.06-4.33,1.6-1.73,3.11-3.56,4.52-5.49v-61.6c-2.95-1.41-6-2.73-9.14-3.95-3.15-1.22-6.19-1.83-9.14-1.83-5.78,0-10.43,1.77-13.96,5.29-3.53,3.53-6.1,8.25-7.7,14.15-1.61,5.91-2.41,12.58-2.41,20.02s.77,13.96,2.31,19.92,3.95,10.72,7.22,14.25c3.27,3.53,7.47,5.29,12.61,5.29Z"/>
            <path d="m439.37,1058.25c-8.99,0-16.46-2.12-22.43-6.35-5.97-4.24-10.46-9.94-13.48-17.13-3.02-7.19-4.52-15.08-4.52-23.68s1.54-16.65,4.62-23.78c3.08-7.12,7.51-12.8,13.28-17.04s12.64-6.35,20.6-6.35c8.73,0,15.95,1.64,21.66,4.91,5.71,3.27,9.94,8.06,12.71,14.34,2.76,6.29,4.14,13.99,4.14,23.1l-.39,7.7h-58.33c0,10.52,2.28,19.25,6.83,26.18,4.55,6.93,10.94,10.4,19.15,10.4,6.29,0,11.52-1.35,15.69-4.04,4.17-2.7,7.92-6.48,11.26-11.36l3.85,2.89c-2.82,4.88-6,8.79-9.53,11.74-3.53,2.95-7.38,5.1-11.55,6.45-4.17,1.35-8.7,2.02-13.57,2.02Zm-22.14-51.98h40.43c0-11.17-1.67-19.73-5.01-25.7-3.34-5.97-8.41-8.95-15.21-8.95-3.85,0-7.29,1.51-10.3,4.52-3.02,3.02-5.42,7.12-7.22,12.32-1.8,5.2-2.7,11.14-2.7,17.81Z"/>
            <path d="m489.23,1056.33v-103.96c0-5.78-.8-10.43-2.41-13.96-1.61-3.53-5.29-5.29-11.07-5.29h-3.85v-3.85h17.33c4.49,0,7.99.58,10.49,1.73,2.5,1.16,4.27,3.4,5.29,6.74,1.03,3.34,1.54,8.21,1.54,14.63v103.96h-17.33Z"/>
            <path d="m526.19,1056.33v-103.96c0-5.78-.8-10.43-2.41-13.96-1.61-3.53-5.29-5.29-11.07-5.29h-3.85v-3.85h17.33c4.49,0,7.99.58,10.49,1.73,2.5,1.16,4.27,3.4,5.29,6.74,1.03,3.34,1.54,8.21,1.54,14.63v103.96h-17.33Z"/>
            <path d="m583.94,1058.25c-2.7,0-5.62-.42-8.76-1.25-3.15-.83-6.19-2.28-9.14-4.33-2.95-2.05-5.36-4.81-7.22-8.28-1.86-3.47-2.79-7.83-2.79-13.09,0-7.06,2.28-12.51,6.83-16.36,4.55-3.85,10.59-6.58,18.1-8.18,7.51-1.6,15.56-2.41,24.16-2.41h5.78c0-8.98-.9-15.82-2.7-20.5-1.8-4.68-4.21-7.89-7.22-9.63-3.02-1.73-6.45-2.6-10.3-2.6-5.39,0-9.92,1.15-13.57,3.46-3.66,2.31-6.19,6.61-7.6,12.9h-8.66c0-3.34.19-6.45.58-9.34.38-2.89,1.8-5.55,4.24-7.99s6.42-4.17,11.94-5.2c5.52-1.03,11.17-1.54,16.94-1.54,4.36,0,8.57.51,12.61,1.54,4.04,1.03,7.63,2.92,10.78,5.68,3.14,2.76,5.65,6.8,7.51,12.13,1.86,5.33,2.79,12.35,2.79,21.08v51.98h-9.63l-6.74-8.66h-.96c-1.93,2.44-5.07,4.81-9.43,7.12-4.36,2.31-10.2,3.46-17.52,3.46Zm8.66-8.66c4.75,0,8.5-1.18,11.26-3.56,2.76-2.37,5.1-5.04,7.03-7.99v-25.99h-5.78c-9.62,0-17.17,1.77-22.62,5.29-5.46,3.53-8.18,8.18-8.18,13.96,0,6.29,1.86,10.91,5.58,13.86,3.72,2.95,7.96,4.43,12.71,4.43Z"/>
            <path d="m891,1067.88c-12.32,0-21.95-1.92-28.88-5.78-6.93-3.85-11.77-9.84-14.5-17.97-2.74-8.13-4.11-18.61-4.11-31.44v-98.82l-64.17,142.46h-5.13l-66.74-145.03v145.03h-10.27v-169.41h24.38l61.6,133.48,60.32-133.48h23.1v125.78c0,15.57,1.97,27.81,5.9,36.71,3.93,8.9,10.09,13.35,18.48,13.35v5.13Z"/>
            <path d="m932.77,1058.25c-8.98,0-16.62-2.12-22.91-6.35-6.29-4.24-11.1-9.94-14.44-17.13-3.34-7.19-5-15.08-5-23.68s1.67-16.65,5-23.78c3.34-7.12,8.15-12.8,14.44-17.04,6.29-4.24,13.92-6.35,22.91-6.35s16.62,2.12,22.91,6.35c6.29,4.24,11.1,9.91,14.44,17.04,3.34,7.12,5,15.05,5,23.78s-1.67,16.49-5,23.68c-3.34,7.19-8.15,12.9-14.44,17.13-6.29,4.24-13.93,6.35-22.91,6.35Zm0-7.7c4.88,0,9.11-1.76,12.71-5.29,3.59-3.53,6.38-8.28,8.37-14.25,1.99-5.97,2.98-12.61,2.98-19.92s-1-14.12-2.98-20.02c-1.99-5.9-4.78-10.62-8.37-14.15-3.59-3.53-7.83-5.29-12.71-5.29s-8.95,1.77-12.61,5.29c-3.66,3.53-6.48,8.25-8.47,14.15-1.99,5.91-2.98,12.58-2.98,20.02s.99,13.96,2.98,19.92c1.99,5.97,4.81,10.72,8.47,14.25,3.66,3.53,7.86,5.29,12.61,5.29Z"/>
            <path d="m1017.86,1058.25c-7.7,0-14.12-2.12-19.25-6.35-5.13-4.24-8.99-9.94-11.55-17.13-2.57-7.19-3.85-15.08-3.85-23.68s1.31-16.65,3.95-23.78c2.63-7.12,6.64-12.8,12.03-17.04,5.39-4.24,12.25-6.35,20.6-6.35,5.39,0,10.01.61,13.86,1.83,3.85,1.22,7.25,2.54,10.2,3.95v-17.33c0-5.78-.8-10.43-2.41-13.96-1.61-3.53-5.29-5.29-11.07-5.29h-3.85v-3.85h17.33c4.49,0,7.99.58,10.49,1.73,2.5,1.16,4.26,3.4,5.29,6.74,1.03,3.34,1.54,8.21,1.54,14.63v103.96h-9.63l-6.74-8.66h-.96c-2.05,2.44-4.94,4.81-8.66,7.12-3.72,2.31-9.5,3.46-17.33,3.46Zm5.78-7.7c3.98,0,7.19-.58,9.63-1.73,2.44-1.16,4.46-2.6,6.06-4.33,1.6-1.73,3.11-3.56,4.52-5.49v-61.6c-2.95-1.41-6-2.73-9.14-3.95-3.15-1.22-6.19-1.83-9.14-1.83-5.78,0-10.43,1.77-13.96,5.29s-6.1,8.25-7.7,14.15c-1.61,5.91-2.41,12.58-2.41,20.02s.77,13.96,2.31,19.92,3.95,10.72,7.22,14.25c3.27,3.53,7.47,5.29,12.61,5.29Z"/>
            <path d="m1100.83,1058.25c-2.69,0-5.62-.42-8.76-1.25-3.15-.83-6.19-2.28-9.14-4.33-2.95-2.05-5.36-4.81-7.22-8.28-1.86-3.47-2.79-7.83-2.79-13.09,0-7.06,2.28-12.51,6.83-16.36,4.55-3.85,10.59-6.58,18.1-8.18,7.51-1.6,15.56-2.41,24.16-2.41h5.78c0-8.98-.9-15.82-2.7-20.5-1.8-4.68-4.21-7.89-7.22-9.63-3.02-1.73-6.45-2.6-10.3-2.6-5.39,0-9.91,1.15-13.57,3.46-3.66,2.31-6.19,6.61-7.6,12.9h-8.66c0-3.34.19-6.45.58-9.34s1.8-5.55,4.24-7.99,6.42-4.17,11.94-5.2c5.52-1.03,11.17-1.54,16.94-1.54,4.36,0,8.57.51,12.61,1.54,4.04,1.03,7.63,2.92,10.78,5.68,3.14,2.76,5.65,6.8,7.51,12.13,1.86,5.33,2.79,12.35,2.79,21.08v51.98h-9.63l-6.74-8.66h-.96c-1.92,2.44-5.07,4.81-9.43,7.12-4.36,2.31-10.2,3.46-17.52,3.46Zm8.66-8.66c4.75,0,8.5-1.18,11.26-3.56,2.76-2.37,5.1-5.04,7.03-7.99v-25.99h-5.78c-9.63,0-17.17,1.77-22.62,5.29-5.46,3.53-8.18,8.18-8.18,13.96,0,6.29,1.86,10.91,5.58,13.86,3.72,2.95,7.96,4.43,12.71,4.43Z"/>
        </g>
    </g>
</svg>